<?xml version="1.0" standalone="no"?>
<!DOCTYPE svg PUBLIC "-//W3C//DTD SVG 20010904//EN"
 "http://www.w3.org/TR/2001/REC-SVG-20010904/DTD/svg10.dtd">
<svg version="1.0" xmlns="http://www.w3.org/2000/svg"
 width="1595.000000pt" height="980.000000pt" viewBox="0 0 1595.000000 980.000000"
 preserveAspectRatio="xMidYMid meet">

<g transform="translate(0.000000,980.000000) scale(0.100000,-0.100000)"
fill="#000000" stroke="none">
<path d="M5499 9772 c-25 -16 -62 -49 -83 -73 -42 -50 -101 -150 -111 -191 -4
-15 -17 -38 -30 -50 -37 -38 -58 -90 -62 -158 -4 -58 -2 -69 23 -107 16 -23
35 -45 42 -48 23 -9 59 21 78 65 10 22 23 40 30 40 16 0 76 -143 82 -196 3
-30 -2 -53 -22 -92 -14 -28 -26 -65 -26 -82 0 -29 1 -30 49 -30 79 0 85 -12
181 -350 33 -118 78 -276 100 -350 79 -276 310 -1108 325 -1174 13 -57 14 -71
3 -81 -7 -7 -150 -47 -318 -89 -401 -101 -665 -169 -1125 -292 -49 -13 -225
-58 -390 -100 -624 -157 -612 -151 -623 -293 l-5 -71 89 0 c86 0 374 12 1074
45 345 16 429 20 1000 55 438 26 420 26 420 -4 0 -20 -27 -168 -45 -244 -8
-33 -116 -81 -290 -127 -77 -21 -210 -58 -295 -83 -85 -24 -168 -48 -185 -52
-16 -4 -113 -31 -215 -59 -233 -66 -495 -139 -720 -201 -96 -27 -218 -62 -270
-78 -206 -65 -538 -152 -578 -152 -33 0 -57 15 -174 111 -132 108 -127 106
-185 60 -42 -33 -178 -182 -266 -291 -67 -82 -141 -113 -567 -234 -939 -266
-1089 -308 -1570 -435 -309 -82 -398 -110 -480 -151 -88 -44 -230 -169 -326
-286 -34 -41 -43 -77 -24 -89 17 -10 100 -7 385 15 311 24 282 22 655 56 379
35 480 40 480 24 0 -7 -16 -52 -35 -101 -67 -167 -71 -326 -8 -391 22 -23 35
-28 75 -28 90 0 118 42 228 345 60 164 88 223 111 236 11 5 108 19 217 29 108
11 269 29 357 41 177 23 165 22 183 20 20 -2 14 -39 -32 -222 -77 -306 -80
-377 -20 -457 49 -63 159 -93 211 -57 36 25 139 320 219 625 10 36 23 72 31
80 12 13 64 15 348 15 183 0 336 -3 339 -6 4 -4 -13 -87 -38 -185 -69 -278
-79 -354 -55 -435 38 -126 208 -148 273 -35 27 46 30 53 132 410 41 143 76
261 77 263 7 6 549 4 555 -2 6 -5 -13 -141 -38 -285 -6 -30 -17 -111 -25 -180
-9 -69 -17 -138 -20 -155 -18 -127 -28 -291 -29 -471 l-1 -210 28 -43 c32 -49
89 -79 166 -88 62 -7 120 11 125 40 3 12 12 63 21 112 9 50 46 209 81 355 66
270 147 618 191 815 13 61 29 116 36 122 15 15 158 22 163 8 2 -5 -23 -44 -56
-85 -67 -84 -65 -59 -28 -250 11 -58 26 -119 33 -137 7 -17 36 -124 64 -236
74 -298 136 -499 161 -519 20 -16 280 -156 455 -246 l80 -40 5 -101 c5 -98 6
-101 40 -137 32 -34 146 -131 250 -214 279 -222 309 -255 339 -372 191 -729
440 -1155 908 -1550 152 -129 285 -208 348 -208 134 0 516 325 745 635 204
277 412 734 490 1080 13 55 27 117 32 137 7 31 28 52 151 150 355 282 436 354
458 406 5 13 9 51 9 85 l0 62 135 75 c403 224 398 222 411 265 159 540 242
851 251 947 6 71 0 89 -68 190 -53 78 -52 82 22 74 34 -3 70 -6 79 -6 13 0 21
-22 39 -107 55 -264 292 -1186 325 -1264 18 -43 31 -54 74 -63 65 -12 122 12
187 78 64 66 105 139 125 225 22 92 7 338 -38 646 -22 149 -43 299 -46 335 -4
36 -9 82 -12 103 l-6 38 299 -7 c164 -3 301 -9 305 -13 4 -3 30 -81 57 -171
68 -229 140 -447 164 -498 26 -56 63 -76 134 -70 68 6 100 29 136 99 38 72 35
105 -42 398 -34 128 -60 235 -57 238 2 3 173 2 379 -2 l374 -8 53 -166 c29
-91 80 -242 113 -336 72 -201 89 -225 164 -225 64 0 111 26 150 84 54 78 46
162 -40 463 -41 143 -48 175 -38 191 5 8 52 6 191 -8 102 -11 201 -22 220 -25
19 -2 90 -11 158 -20 138 -18 170 -27 178 -52 31 -91 155 -394 186 -454 42
-83 63 -99 130 -99 34 0 46 6 74 35 18 20 36 51 40 71 11 59 -5 179 -41 302
-18 65 -31 120 -29 123 2 3 36 0 76 -6 41 -7 181 -23 313 -35 132 -11 260 -23
285 -25 69 -7 454 -33 558 -39 110 -6 118 2 81 72 -31 58 -193 228 -263 277
-64 44 -177 80 -731 235 -214 60 -451 127 -525 148 -74 22 -196 56 -270 76
-614 169 -898 254 -968 291 -50 25 -101 74 -292 285 -67 74 -126 136 -131 138
-5 2 -57 -34 -116 -80 -150 -116 -168 -128 -195 -128 -46 0 -233 49 -703 185
-121 35 -377 107 -570 160 -537 148 -636 175 -685 190 -25 7 -79 22 -120 33
-162 45 -446 123 -456 127 -12 3 -53 177 -61 260 l-6 55 69 0 c38 -1 188 -7
334 -15 472 -26 669 -35 1015 -50 187 -8 516 -22 732 -31 422 -18 423 -18 423
32 0 33 -37 124 -63 156 -24 29 -101 50 -887 242 -1063 260 -1446 358 -1494
383 -27 14 -28 18 -22 60 3 26 29 132 57 237 74 281 122 463 165 626 143 554
259 971 278 1005 l22 40 58 -3 59 -4 -5 49 c-3 31 -15 64 -31 88 -32 47 -34
84 -7 144 35 76 69 88 127 44 33 -25 37 -26 61 -12 39 22 66 75 67 133 0 46
-6 59 -57 134 -32 46 -61 95 -64 110 -3 15 -8 35 -11 45 -7 28 -117 141 -176
180 -63 44 -99 52 -126 29 -12 -10 -42 -87 -77 -197 l-57 -180 -56 -52 c-51
-49 -56 -56 -55 -95 1 -38 7 -48 53 -89 l52 -47 -16 -38 c-9 -22 -68 -165
-130 -319 -63 -154 -139 -341 -170 -415 -48 -115 -139 -337 -200 -485 -9 -22
-20 -49 -25 -60 -5 -11 -43 -101 -84 -200 -159 -386 -295 -714 -331 -802 -56
-137 -55 -137 -191 -131 -133 6 -158 18 -269 123 -373 356 -836 439 -1273 230
-106 -51 -150 -79 -282 -183 -52 -41 -110 -81 -129 -89 -32 -14 -241 -53 -281
-53 -34 0 -76 48 -108 122 -99 234 -255 614 -469 1143 -58 143 -138 341 -178
440 -41 99 -124 306 -185 459 l-111 280 45 45 c73 74 73 125 0 156 -45 18 -54
36 -125 230 -34 94 -70 182 -81 198 -26 36 -70 36 -129 -1z m70 -82 c-6 -16
-39 -76 -74 -132 -92 -147 -82 -136 -94 -118 -25 36 -3 98 70 197 60 81 118
113 98 53z m4884 10 c39 -31 89 -98 82 -110 -17 -27 -135 81 -135 125 0 12 29
4 53 -15z m-43 -164 c0 -39 -9 -108 -20 -154 -24 -100 -24 -114 -5 -189 17
-64 12 -135 -12 -154 -9 -8 -12 -22 -8 -41 10 -42 -10 -35 -45 18 -34 48 -34
69 -1 40 23 -21 43 -13 34 12 -3 9 -28 50 -55 91 l-50 74 17 61 c16 57 86 270
107 326 9 24 10 24 24 6 9 -13 14 -45 14 -90z m-4776 17 c27 -90 47 -144 72
-195 13 -26 24 -56 24 -67 0 -11 -22 -67 -49 -123 -27 -57 -57 -129 -66 -160
-10 -36 -22 -58 -31 -58 -8 0 -14 8 -14 18 0 28 -47 202 -80 296 -17 46 -30
91 -30 99 0 26 135 246 151 247 4 0 14 -26 23 -57z m5026 -168 c10 -13 9 -15
-8 -15 -22 0 -36 13 -25 24 10 10 20 7 33 -9z m-5309 -17 c2 -39 -2 -52 -21
-72 -23 -24 -33 -16 -32 23 1 58 50 102 53 49z m408 -388 c19 -65 100 -274
174 -446 36 -82 68 -160 72 -174 10 -34 415 -1041 538 -1335 55 -132 103 -256
108 -276 12 -53 -9 -121 -91 -298 -94 -200 -140 -279 -151 -259 -5 9 -32 98
-60 199 -27 101 -77 279 -111 394 -229 802 -293 1028 -452 1610 -131 479 -135
517 -75 614 23 38 31 34 48 -29z m4287 -737 c-134 -406 -315 -954 -401 -1218
-86 -264 -165 -505 -175 -535 -11 -30 -24 -74 -30 -97 -6 -24 -15 -43 -20 -43
-6 0 -10 4 -10 10 0 5 -15 43 -33 82 -50 108 -60 143 -52 190 10 59 63 208
140 398 37 91 190 471 340 845 150 374 283 703 295 730 12 28 37 93 56 145 46
126 123 267 132 241 2 -6 -107 -343 -242 -748z m-1828 -1223 c341 -72 619
-327 757 -695 56 -147 95 -412 95 -637 0 -254 -50 -685 -91 -783 -12 -30 -12
-29 -21 33 -13 92 -71 260 -139 398 -48 99 -71 134 -127 191 -121 124 -250
204 -412 254 -68 22 -93 24 -260 23 -172 0 -191 -2 -273 -27 -191 -59 -366
-172 -500 -325 -54 -61 -62 -52 -15 16 59 89 117 149 190 199 153 106 326 176
523 213 66 12 126 24 133 26 17 5 6 151 -14 182 -11 17 -24 22 -58 22 -61 0
-181 -24 -245 -49 -29 -12 -56 -20 -59 -17 -23 24 76 76 206 107 142 35 154
50 101 133 -16 27 -29 50 -27 51 2 2 45 -1 97 -6 183 -19 310 -90 513 -287
l127 -124 -1 -128 c0 -70 3 -138 7 -151 4 -13 31 -54 59 -90 28 -36 71 -98 96
-137 24 -40 48 -72 52 -72 17 0 22 70 22 335 0 253 -2 290 -22 383 -55 252
-187 504 -358 682 -127 132 -242 191 -430 224 -111 20 -186 20 -289 1 -112
-20 -149 -32 -236 -75 -188 -95 -333 -249 -442 -471 -87 -177 -116 -277 -128
-449 -15 -196 -4 -631 18 -722 15 -63 15 -72 -2 -135 -24 -93 -46 -146 -55
-136 -16 17 -41 159 -51 289 -6 77 -9 288 -6 496 4 357 4 364 29 438 94 277
178 420 330 566 84 81 219 172 317 213 147 62 404 80 589 41z m-29 -135 c101
-18 152 -46 235 -129 128 -128 191 -257 262 -537 35 -140 40 -169 27 -169 -5
0 -30 21 -58 46 -197 181 -274 231 -430 280 -131 41 -207 39 -355 -10 -203
-68 -301 -128 -467 -289 -51 -49 -93 -86 -93 -81 1 13 59 112 94 159 115 156
397 288 628 294 38 1 27 26 -23 51 -52 27 -66 26 -201 -21 -190 -65 -176 -34
20 47 127 53 152 68 152 97 0 12 7 31 16 42 9 12 12 30 9 46 -5 21 1 32 34 62
53 48 56 68 12 79 -56 15 -190 -8 -328 -57 -140 -50 -153 -53 -130 -27 35 39
203 109 297 125 60 10 222 6 299 -8z m-2068 -85 c10 -6 19 -16 19 -22 0 -14
-40 -58 -53 -58 -5 0 -116 -46 -246 -102 -423 -181 -424 -182 -961 -267 -969
-154 -1058 -169 -1080 -176 -10 -3 -21 -1 -24 4 -8 12 150 62 359 115 135 35
202 52 495 131 74 19 347 89 605 154 516 131 652 167 765 204 88 29 95 30 121
17z m4799 -263 c542 -135 1040 -258 1107 -272 67 -14 139 -33 160 -43 l38 -17
-40 -3 c-44 -4 -206 11 -360 33 -55 7 -159 21 -231 30 -72 9 -141 18 -155 20
-13 1 -100 12 -194 24 -93 12 -188 23 -210 26 -58 8 -462 52 -740 80 -132 14
-258 27 -280 30 -139 17 -197 25 -205 30 -5 3 0 38 11 78 49 179 77 244 103
234 6 -3 454 -115 996 -250z m-3860 82 c0 -6 -9 -24 -21 -40 -32 -46 -101
-201 -164 -370 l-58 -157 -76 -22 c-128 -38 -255 -70 -279 -70 -32 0 -31 2
108 285 131 265 172 334 212 353 55 26 278 43 278 21z m-294 -702 c3 -8 -7
-37 -22 -66 -31 -63 -130 -361 -172 -521 -51 -191 -84 -400 -188 -1180 -9 -69
-19 -128 -23 -131 -6 -6 -174 4 -266 16 -27 3 -102 13 -165 21 -198 24 -395
56 -404 65 -11 10 55 102 288 404 180 234 289 391 283 409 -6 17 -36 19 -54 4
-9 -7 -58 -65 -109 -128 -50 -63 -107 -130 -126 -148 -42 -39 -48 -41 -428
-77 -261 -26 -507 -50 -1010 -99 -140 -14 -343 -34 -450 -45 -107 -10 -203
-16 -213 -12 -35 13 21 54 413 302 266 169 480 320 480 339 0 3 -20 26 -45 50
-42 41 -47 44 -68 31 -28 -18 -334 -193 -762 -436 -181 -103 -361 -208 -398
-232 -115 -75 -181 -101 -302 -118 -173 -25 -462 -64 -675 -90 -382 -48 -593
-75 -653 -85 -112 -18 -116 -15 -59 47 21 22 60 67 87 99 96 113 179 196 220
220 60 35 148 63 510 164 176 49 457 128 625 176 168 47 350 99 405 114 55 15
350 98 655 184 305 87 724 205 930 263 513 144 978 277 1270 364 375 110 417
120 426 96z m2626 -23 c169 -49 161 -47 453 -129 143 -41 364 -103 490 -139
127 -36 282 -79 345 -96 63 -18 196 -54 295 -81 233 -65 421 -116 515 -140 90
-24 540 -152 735 -210 77 -22 208 -60 290 -84 83 -24 285 -82 450 -130 420
-121 1241 -356 1420 -405 83 -23 229 -64 325 -90 697 -191 744 -205 837 -250
44 -22 103 -60 130 -85 l48 -44 -30 0 c-32 0 -63 3 -360 44 -104 14 -275 37
-380 50 -104 14 -206 27 -225 30 -19 2 -111 14 -205 25 -93 11 -186 22 -205
25 -19 3 -114 14 -210 25 -564 66 -833 106 -943 140 -34 11 -134 58 -222 106
-321 173 -834 414 -880 414 -39 0 -43 -27 -9 -60 16 -16 126 -84 244 -151 231
-130 430 -256 430 -270 0 -11 -66 -11 -195 1 -55 5 -201 18 -325 30 -124 11
-254 25 -290 30 -36 6 -153 19 -260 30 -107 11 -211 22 -230 25 -55 7 -514 53
-740 75 -241 23 -432 48 -477 61 -32 10 -84 65 -172 181 -67 89 -121 148 -136
148 -17 0 -28 -34 -20 -60 3 -11 79 -118 168 -239 180 -243 268 -367 435 -611
l113 -165 -40 -12 c-22 -6 -147 -30 -278 -52 -131 -23 -278 -48 -328 -57 -441
-76 -590 -101 -593 -99 -2 1 2 62 9 135 18 205 6 1427 -15 1578 -14 96 -72
423 -92 515 -4 15 -4 27 -1 27 3 0 61 -16 129 -36z m-2552 -236 c-32 -205 -69
-488 -85 -648 -19 -185 -19 -599 0 -795 30 -324 151 -1349 179 -1525 9 -52 18
-138 21 -190 5 -94 5 -95 -10 -55 -56 143 -182 734 -205 955 -6 58 -16 150
-23 205 -18 146 -17 1512 1 1650 47 355 85 535 125 583 21 26 20 -35 -3 -180z
m2359 115 c20 -87 50 -286 66 -435 9 -80 18 -164 20 -185 33 -303 33 -981 0
-1318 -3 -27 -12 -124 -21 -215 -18 -194 -35 -299 -110 -670 -59 -297 -92
-430 -104 -430 -17 0 -28 101 -60 525 -11 143 -32 379 -47 525 -37 369 -35
422 20 725 25 138 70 385 100 550 77 418 75 406 87 645 12 253 19 330 30 330
4 0 13 -21 19 -47z m-1034 -58 c204 -41 353 -124 474 -265 99 -115 184 -310
232 -531 36 -169 25 -311 -76 -959 -43 -282 -67 -415 -76 -424 -4 -5 -40 21
-81 61 -198 190 -354 269 -548 277 -81 3 -248 -25 -320 -53 -138 -55 -292
-150 -415 -256 -33 -29 -70 -57 -82 -64 -19 -10 -22 -8 -27 17 -9 46 -25 149
-51 347 -14 105 -40 287 -58 405 -29 196 -32 237 -32 460 0 233 1 249 24 315
58 170 142 305 264 424 133 130 268 203 457 247 54 13 250 12 315 -1z m-4731
-576 c5 -11 6 -22 3 -25 -10 -10 -226 -90 -295 -109 -34 -10 -65 -15 -69 -12
-6 6 54 89 99 137 13 14 45 51 72 82 l48 58 67 -56 c36 -31 70 -65 75 -75z
m9396 21 c81 -84 131 -153 119 -164 -10 -10 -379 101 -379 114 0 17 143 139
164 140 6 0 49 -40 96 -90z m-8611 -257 c-34 -41 -361 -234 -375 -220 -10 9
54 52 210 141 94 53 172 96 174 96 3 0 -2 -8 -9 -17z m8536 -442 c124 -69 197
-152 93 -105 -39 17 -188 128 -188 139 0 13 31 2 95 -34z m-11300 -60 c6 -10
-119 -164 -171 -212 -45 -41 -81 -62 -88 -50 -12 19 22 67 121 170 91 94 123
115 138 92z m10743 -156 c12 -19 31 -37 44 -39 13 -3 181 -7 373 -10 360 -6
465 -12 465 -27 0 -5 -184 -9 -414 -9 -228 0 -417 -4 -420 -8 -3 -5 4 -47 15
-93 11 -46 19 -97 17 -114 l-3 -30 -22 34 c-20 32 -74 210 -89 294 -8 47 7 48
34 2z m-11293 -25 c-35 -69 -165 -179 -165 -140 0 28 144 170 172 170 5 0 2
-13 -7 -30z m-290 -20 c4 -6 -20 -36 -52 -68 -41 -41 -86 -71 -154 -105 -96
-47 -268 -111 -277 -102 -8 8 20 36 96 96 92 74 178 122 284 159 94 34 95 34
103 20z m3079 3 c64 -3 102 -10 94 -14 -18 -12 -818 -11 -818 1 0 16 526 26
724 13z m9678 -95 c19 -29 69 -180 63 -187 -3 -2 -9 0 -15 5 -16 16 -90 171
-90 188 0 23 25 20 42 -6z m-10562 -55 c-15 -70 -39 -133 -51 -133 -16 0 -9
68 12 122 38 96 57 102 39 11z m11686 -91 c12 -7 71 -179 99 -287 20 -79 20
-169 -1 -189 -25 -25 -34 -10 -34 59 0 76 -17 153 -65 294 -19 58 -35 111 -35
118 0 14 18 17 36 5z m-12881 -192 c-38 -120 -46 -156 -44 -213 2 -81 -11
-102 -37 -61 -12 17 -18 44 -17 70 3 81 133 422 141 369 1 -11 -18 -85 -43
-165z m4009 85 c111 -13 233 -29 271 -35 39 -6 142 -19 230 -30 88 -11 225
-28 306 -38 176 -23 240 -50 208 -88 -15 -18 -34 -17 -259 17 -507 75 -1000
170 -1000 194 0 9 37 6 244 -20z m7814 -53 c17 -16 35 -47 42 -72 7 -25 18
-53 26 -64 9 -14 14 -49 14 -107 0 -105 -19 -139 -76 -139 -43 0 -43 12 0 33
25 12 36 24 38 44 5 36 -36 192 -67 262 -37 80 -30 93 23 43z m-10638 -13 c0
-12 -59 -74 -77 -80 -6 -2 -13 -15 -15 -29 -2 -19 1 -24 15 -22 21 4 22 -7 1
-37 -20 -28 -22 -125 -3 -147 7 -9 21 -13 33 -10 12 3 28 1 36 -4 13 -8 12
-11 -5 -24 -47 -36 -104 -11 -124 54 -30 100 48 310 115 310 13 0 24 -5 24
-11z m984 -92 c-10 -40 -18 -102 -17 -139 0 -56 5 -74 27 -109 34 -51 22 -72
-20 -36 -29 25 -29 26 -28 134 0 102 10 159 37 228 20 51 21 2 1 -78z m4443
83 c38 -14 37 -9 58 -220 23 -224 31 -480 15 -480 -22 0 -284 51 -306 60 -20
8 -20 13 -17 271 2 145 6 293 9 328 l6 64 101 -6 c56 -3 116 -11 134 -17z
m4107 -27 c17 -35 56 -192 56 -230 0 -43 -33 -89 -75 -103 -37 -12 -65 -2 -65
23 0 7 4 7 12 -1 19 -19 45 -14 62 10 20 28 20 88 1 152 -21 68 -31 176 -17
176 6 0 18 -12 26 -27z m-96 -69 c-10 -10 -28 6 -28 24 0 15 1 15 17 -1 9 -9
14 -19 11 -23z m-9428 -65 c-16 -39 -44 -41 -29 -2 6 15 15 34 22 41 17 21 21
-3 7 -39z m9460 6 c10 -12 10 -15 -4 -15 -9 0 -16 7 -16 15 0 8 2 15 4 15 2 0
9 -7 16 -15z m-3640 -177 c6 -24 15 -59 20 -78 8 -30 31 -159 70 -390 6 -30
10 -74 10 -97 0 -35 -3 -43 -18 -43 -23 0 -292 178 -299 198 -4 8 4 37 16 66
13 28 41 98 63 155 60 157 96 231 112 231 9 0 20 -17 26 -42z m-491 -435 c189
-30 393 -146 571 -323 89 -89 143 -175 154 -243 24 -150 -119 -755 -239 -1014
-44 -96 -134 -223 -212 -300 -104 -102 -300 -221 -350 -211 -10 1 -28 23 -40
48 -35 70 -56 177 -98 500 -4 35 -23 252 -40 470 -39 487 -56 701 -63 770 -4
41 -7 129 -7 194 0 119 0 120 25 127 33 10 183 1 299 -18z m-3459 -142 c0 -50
30 -88 81 -101 29 -8 39 -16 39 -31 0 -11 -6 -22 -14 -25 -23 -9 -94 34 -111
65 -18 35 -30 104 -21 126 10 27 26 6 26 -34z m2078 -43 c12 -46 46 -207 76
-359 128 -639 197 -890 338 -1224 145 -344 334 -652 548 -894 111 -126 145
-170 136 -178 -16 -16 -251 179 -368 305 -59 65 -167 206 -229 302 -335 514
-496 1108 -535 1973 -8 180 2 202 34 75z m2489 -136 c-17 -422 -93 -867 -210
-1222 -170 -516 -461 -961 -805 -1230 -95 -74 -162 -117 -162 -102 0 9 36 51
214 249 172 193 321 416 450 678 189 382 312 775 401 1280 61 346 97 515 112
515 3 0 3 -76 0 -168z m983 154 c-13 -12 -132 -83 -260 -154 -25 -14 -97 -54
-160 -90 -163 -92 -162 -92 -300 -168 -116 -64 -174 -94 -185 -94 -13 0 -2 32
21 59 19 22 145 91 455 246 236 118 432 215 436 215 4 0 1 -6 -7 -14z m-3925
-264 c281 -133 349 -171 332 -189 -13 -13 -637 300 -637 319 0 11 71 -19 305
-130z"/>
<path d="M12452 4915 c-51 -44 -78 -27 513 -314 452 -218 475 -227 475 -168 0
28 -79 72 -575 320 -407 203 -378 192 -413 162z"/>
<path d="M7920 5670 c-84 -10 -141 -26 -216 -60 -168 -76 -327 -227 -420 -400
-107 -197 -124 -341 -79 -675 14 -104 39 -293 55 -420 38 -301 60 -459 66
-464 2 -2 21 8 41 23 177 125 300 187 450 228 117 31 313 29 445 -5 125 -33
224 -80 317 -150 41 -31 78 -54 82 -51 5 3 9 17 9 32 0 31 78 554 116 782 54
321 27 512 -107 746 -101 174 -198 273 -334 339 -121 58 -296 89 -425 75z
m281 -116 c180 -53 350 -209 420 -386 11 -29 23 -82 26 -118 4 -54 -18 -296
-43 -475 -3 -22 -22 -181 -43 -354 -38 -323 -42 -341 -79 -308 -36 31 -344
117 -424 117 -50 0 -51 4 -33 178 18 169 15 226 -13 241 -23 12 -26 12 -117
-20 -85 -30 -131 -37 -119 -18 9 16 114 62 202 89 65 21 72 25 72 49 0 14 5
80 10 146 5 66 10 228 11 360 l3 239 -59 38 c-33 20 -61 42 -63 47 -2 5 26 8
65 8 62 -2 68 0 71 19 2 11 -13 50 -32 86 -19 36 -32 69 -29 72 12 12 120 6
174 -10z m-344 -209 c81 -36 123 -80 130 -136 l6 -44 -49 51 c-60 63 -132 92
-248 101 -86 6 -126 16 -126 32 0 19 58 31 141 27 66 -3 99 -9 146 -31z m-513
-760 c59 -302 87 -522 85 -674 -1 -166 -29 -160 -36 8 -2 58 -13 174 -24 256
-75 570 -84 714 -25 410z m252 -145 c56 -22 70 -75 31 -114 -28 -27 -123 -54
-139 -38 -7 7 8 16 47 28 89 28 86 66 -7 77 -63 8 -81 22 -54 43 23 16 83 18
122 4z"/>
<path d="M7890 2526 c0 -57 24 -334 35 -396 3 -21 27 -250 51 -490 20 -209 33
-260 64 -260 18 0 20 6 20 58 0 31 -9 152 -20 267 -20 214 -44 535 -56 750 -3
66 -8 123 -11 128 -2 4 -22 7 -44 7 l-39 0 0 -64z"/>
</g>
</svg>
